<?xml version="1.0" encoding="utf-8"?>
<!-- Generator: Adobe Illustrator 26.0.1, SVG Export Plug-In . SVG Version: 6.00 Build 0)  -->
<svg version="1.1" id="Ebene_1" xmlns="http://www.w3.org/2000/svg" xmlns:xlink="http://www.w3.org/1999/xlink" x="0px" y="0px"
	 viewBox="0 0 100 100" style="enable-background:new 0 0 100 100;" xml:space="preserve">
<style type="text/css">
	.st0{display:none;}
	.st1{display:inline;}
</style>
<path d="M98.7,43.8h-5c-0.2-1.7-0.6-3.4-1-5c-4.9-18.7-22-32.6-42.2-32.6c-20.2,0-37.3,13.9-42.2,32.6c-0.4,1.6-0.8,3.3-1,5H2.2
	c0.2-1.7,0.5-3.4,0.9-5c5-21.5,24.3-37.6,47.4-37.6c23.1,0,42.4,16,47.4,37.6C98.2,40.5,98.5,42.2,98.7,43.8z"/>
<path d="M98.7,56.2c-0.2,1.7-0.5,3.4-0.9,5c-5.1,21.4-24.3,37.3-47.3,37.3c-23,0-42.2-15.9-47.3-37.3c-0.4-1.6-0.7-3.3-0.9-5h5
	c0.2,1.7,0.6,3.4,1,5c5,18.6,22,32.3,42.1,32.3c20.2,0,37.2-13.7,42.1-32.3c0.4-1.6,0.8-3.3,1-5H98.7z"/>
<path class="st0" d="M93.6,56.2c-0.2,1.7-0.6,3.4-1,5h-21c-4,7.6-12,12.7-21.2,12.7c-9.2,0-17.1-5.1-21.2-12.7h-21
	c-0.4-1.6-0.8-3.3-1-5h25.3c0.6,1.8,1.5,3.5,2.6,5c3.5,4.7,9,7.7,15.2,7.7c6.2,0,11.8-3,15.2-7.7c1.1-1.5,2-3.2,2.6-5H93.6z"/>
<path d="M93.7,43.8H68.5c-0.6-1.8-1.5-3.5-2.6-5c-3.4-4.8-9.1-7.9-15.4-7.9c-6.3,0-12,3.1-15.4,7.9c-1.1,1.5-2,3.2-2.6,5H7.3
	c0.2-1.7,0.6-3.4,1-5h20.9c4-7.7,12-12.9,21.3-12.9c9.2,0,17.3,5.2,21.3,12.9h20.9C93.1,40.5,93.4,42.2,93.7,43.8z"/>
<g class="st0">
	<path class="st1" d="M51,41.9c4.5,0,8.1,3.6,8.1,8.1s-3.6,8.1-8.1,8.1s-8.1-3.6-8.1-8.1S46.5,41.9,51,41.9 M51,36.9
		c-7.3,0-13.1,5.9-13.1,13.1S43.7,63.1,51,63.1S64.1,57.3,64.1,50S58.3,36.9,51,36.9L51,36.9z"/>
</g>
</svg>
