<?xml version="1.0" standalone="no"?>
<!DOCTYPE svg PUBLIC "-//W3C//DTD SVG 20010904//EN"
 "http://www.w3.org/TR/2001/REC-SVG-20010904/DTD/svg10.dtd">
<svg version="1.0" xmlns="http://www.w3.org/2000/svg"
 width="700.000000pt" height="700.000000pt" viewBox="0 0 700.000000 700.000000"
 preserveAspectRatio="xMidYMid meet">
<metadata>
Created by potrace 1.14, written by Peter Selinger 2001-2017
</metadata>
<g transform="translate(0.000000,700.000000) scale(0.100000,-0.100000)"
fill="#000000" stroke="none">
<path d="M3279 6645 c-3 -2 -36 -7 -74 -10 -383 -31 -783 -148 -1145 -334
-820 -420 -1429 -1206 -1630 -2103 -16 -70 -60 -323 -60 -343 0 -3 465 -5
1033 -5 l1033 0 13 38 c7 20 31 73 53 117 157 316 472 546 823 602 28 4 113 8
190 8 110 -1 160 -6 235 -23 52 -13 104 -27 115 -32 11 -5 48 -20 82 -34 171
-71 353 -217 465 -376 49 -69 118 -201 138 -262 l12 -38 1034 0 1034 0 -4 28
c-3 15 -8 50 -11 77 -23 184 -113 529 -174 670 -4 11 -23 56 -41 100 -302 731
-908 1344 -1646 1665 -176 77 -453 165 -609 195 -119 22 -205 36 -258 41 -34
3 -73 8 -87 11 -30 6 -516 14 -521 8z"/>
<path d="M374 3123 c2 -16 7 -50 11 -78 13 -110 60 -318 108 -480 101 -341
327 -763 565 -1054 90 -110 249 -275 362 -377 308 -275 726 -511 1135 -639
115 -36 330 -88 410 -99 22 -4 51 -8 65 -11 26 -6 35 -7 185 -22 148 -15 552
-8 685 12 397 59 681 145 1000 304 324 162 565 336 820 591 184 185 267 286
406 495 87 132 222 381 269 495 122 299 205 607 230 863 l3 27 -1034 0 c-764
0 -1034 -3 -1034 -11 0 -20 -87 -196 -127 -256 -53 -81 -58 -87 -148 -178
-164 -165 -366 -268 -615 -313 -62 -12 -323 -6 -385 7 -224 49 -415 152 -570
306 -119 118 -218 268 -260 394 l-17 51 -1035 0 -1035 0 6 -27z"/>
</g>
</svg>
